# Blender v2.76 (sub 0) OBJ File: ''
# www.blender.org
mtllib blade2.mtl
o Blade
v 2.334385 0.022101 -0.956226
v -2.012758 0.022101 -0.957476
v -2.012758 0.036501 -0.737476
v 3.750000 0.019821 -0.738346
v 2.334385 0.020851 -0.956226
v 2.334384 0.020851 -0.516226
v 2.334384 0.020851 -0.514976
v 3.750000 0.020455 -0.738696
v -2.012758 0.020851 -0.957476
v -2.012758 0.006611 -0.738726
v -2.012758 0.020851 -0.512476
v -2.012758 0.020851 -0.513726
v -1.590960 0.028021 -1.816823
v -1.744871 -0.000000 -1.634275
v -1.994031 -0.000000 -1.184823
v -2.205614 -0.000000 -1.202410
v -1.829669 -0.000000 -1.696446
v -1.986031 -0.000000 -0.248823
v -2.202031 -0.000000 -0.248823
v -1.658031 -0.000000 0.215177
v -1.722031 -0.000000 0.287176
v -1.388011 0.024192 0.455177
v -1.587131 0.028021 -1.816823
v -1.829669 0.048384 -1.696446
v -2.205614 0.048384 -1.202410
v -1.994031 0.048384 -1.184823
v -1.744871 0.048384 -1.634275
v -2.202031 0.048384 -0.248823
v -1.986031 0.048384 -0.248823
v -1.722031 0.048384 0.287176
v -1.658031 0.048384 0.215177
v -1.388011 0.028021 0.455177
vt 1.000000 1.000000
vt 0.000000 1.000000
vt 0.000000 0.500000
vt 0.500000 0.000000
vt 0.000000 0.000000
vt 1.000000 0.000000
vt 0.500000 1.000000
vt 1.000000 0.500000
vt 1.000000 0.250000
vt 1.000000 0.375000
vt 0.000000 0.250000
vt 1.000000 0.437500
vt 0.000000 0.125000
vn 0.055500 0.545500 -0.836300
vn 0.000000 0.997900 -0.065300
vn 0.000100 1.000000 0.002200
vn 0.001000 0.999000 -0.044200
vn -0.000100 0.999700 -0.024000
vn -0.943600 0.162100 0.288800
vn 0.000300 0.000000 -1.000000
vn -1.000000 0.000000 0.000000
vn -1.000000 -0.000400 0.000000
vn 0.000000 0.999400 0.034900
vn 0.000000 1.000000 0.000000
vn 0.002400 -0.999800 0.017800
vn 0.000000 -0.998000 0.062800
vn 0.000100 -1.000000 -0.001100
vn 0.000000 -0.997900 -0.065000
vn 0.002400 -0.999800 -0.018300
vn -0.000400 -1.000000 0.000500
vn 0.000900 -1.000000 -0.001200
vn 0.028300 -0.998900 -0.038700
vn 0.000000 -1.000000 -0.000000
vn 0.025000 -0.999400 0.022200
vn 0.024900 -0.999400 0.022200
vn 0.049900 -0.997800 0.044400
vn 0.020400 0.999400 -0.027800
vn -0.000200 1.000000 0.000300
vn 0.024600 0.999100 -0.033600
vn 0.021100 0.999600 0.018700
vn 0.042100 0.998400 0.037400
vn 0.664300 0.000000 -0.747400
vn 0.745400 0.000000 -0.666700
vn 0.745300 0.000000 -0.666700
vn -0.030100 0.974000 -0.224400
vn -0.639300 0.000600 -0.768900
vn -0.639200 0.002500 -0.769000
vn -0.948200 0.000000 -0.317800
vn 0.067400 -0.983700 0.166500
vn 0.000000 -0.993800 0.110900
vn 0.823200 -0.004800 0.567700
vn -0.933400 0.000000 0.358900
vn 0.823400 -0.001200 0.567400
vn 0.969200 0.000000 0.246300
vn -0.607800 0.000000 0.794100
vn -0.607700 0.000000 0.794100
vn 0.951700 0.000000 -0.306900
vn -0.449300 0.000000 0.893400
vn -0.845700 0.495100 -0.199400
vn 0.076300 0.000000 -0.997100
vn 0.002400 -1.000000 -0.000500
vn 0.069100 -0.993200 -0.094200
vn 0.034000 -0.998300 -0.046400
vn 0.049900 0.996400 -0.068000
vn 0.000700 1.000000 -0.000900
vn 0.000000 0.986000 -0.166800
usemtl None
s 1
f 1/1/1 2/2/2 3/3/3
f 6/2/4 7/4/5 8/5/6
f 9/6/7 2/1/7 1/2/1
f 10/4/8 11/6/9 12/7/9
f 12/2/10 11/5/11 7/6/5
f 7/1/12 11/3/13 10/2/14
f 3/3/3 12/5/10 6/8/4
f 10/2/14 9/5/15 5/6/16
f 15/9/17 16/3/18 17/2/19
f 15/9/17 18/10/20 19/11/20
f 18/10/20 20/12/21 21/13/22
f 21/13/22 20/12/21 22/8/23
f 24/2/24 26/9/25 27/6/26
f 28/11/11 29/10/11 26/9/25
f 30/13/27 31/12/27 29/10/11
f 30/13/27 32/8/28 31/12/27
f 22/5/29 20/5/30 31/5/31
f 13/5/32 17/5/33 24/5/34
f 16/5/35 25/5/35 24/5/34
f 13/5/36 23/5/37 27/5/38
f 19/5/39 28/5/39 25/5/35
f 14/5/40 27/5/38 26/5/41
f 19/5/39 21/5/42 30/5/43
f 18/5/44 15/5/41 26/5/41
f 18/5/44 29/5/44 31/5/31
f 22/5/45 32/5/45 30/5/43
f 4/6/46 1/1/1 3/3/3
f 8/5/6 5/6/47 1/1/1
f 4/7/46 6/2/4 8/5/6
f 8/5/6 1/1/1 4/7/46
f 5/5/47 9/6/7 1/2/1
f 3/1/8 2/2/8 10/4/8
f 9/5/8 10/4/8 2/2/8
f 12/7/9 3/1/8 10/4/8
f 6/1/4 12/2/10 7/6/5
f 8/8/48 7/1/12 10/2/14
f 4/6/46 3/3/3 6/8/4
f 8/8/48 10/2/14 5/6/16
f 17/2/19 13/1/49 14/6/50
f 14/6/50 15/9/17 17/2/19
f 16/3/18 15/9/17 19/11/20
f 19/11/20 18/10/20 21/13/22
f 27/6/26 23/1/51 24/2/24
f 24/2/24 25/3/52 26/9/25
f 25/3/52 28/11/11 26/9/25
f 28/11/11 30/13/27 29/10/11
f 32/5/29 22/5/29 31/5/31
f 23/5/53 13/5/32 24/5/34
f 17/5/33 16/5/35 24/5/34
f 14/5/40 13/5/36 27/5/38
f 16/5/35 19/5/39 25/5/35
f 15/5/41 14/5/40 26/5/41
f 28/5/39 19/5/39 30/5/43
f 29/5/44 18/5/44 26/5/41
f 20/5/30 18/5/44 31/5/31
f 21/5/42 22/5/45 30/5/43
